# xmcd
#
# Track frame offsets: 
#        150
#        13032
#        30691
#        49441
#        66845
#        81852
#        95956
#        112451
#        127110
#        145504
#        159941
#        171855
#        190631
#        203750
#        212915
#        223408
#        238829
#        244515
#        264267
#        285271
#        301939
#        320171
#
# Disc length: 4349 seconds
#
# Revision: 0
# Processed by: cddbd v1.5.2PL0 Copyright (c) Steve Scherf et al.
# Submitted via: ExactAudioCopy v0.95b3
#
DISCID=4e10fb16
DTITLE=Williams, Jack - Don't Let Go
DYEAR=2008
DGENRE=Blues
TTITLE0=Don't Let Go
TTITLE1=Aunt Hagar's Blues
TTITLE2=Biloxi
TTITLE3=He Will Break Your Heart
TTITLE4=Tomorrow is Such a Long Time
TTITLE5=Young at Heart
TTITLE6=King Harvest
TTITLE7=Wish I Was (a Willow Tree)
TTITLE8=That Lucky Old Sun
TTITLE9=Hallelujah I Love Her So
TTITLE10=Lovesick Blues
TTITLE11=The Heart of Saturday Night
TTITLE12=Sittin' on Top of the World
TTITLE13=Lullaby of Birdland
TTITLE14=Come Rain or Come Shine
TTITLE15=Daddy's Home
TTITLE16=Delicado
TTITLE17=A Salty Dog
TTITLE18=Watermelon Man
TTITLE19=Gotta Travel on
TTITLE20=Bye, Bye Blackbird
TTITLE21=Rebel-Rouser
EXTD=
EXTT0=
EXTT1=
EXTT2=
EXTT3=
EXTT4=
EXTT5=
EXTT6=
EXTT7=
EXTT8=
EXTT9=
EXTT10=
EXTT11=
EXTT12=
EXTT13=
EXTT14=
EXTT15=
EXTT16=
EXTT17=
EXTT18=
EXTT19=
EXTT20=
EXTT21=
PLAYORDER=
